<svg width="327" height="102" viewBox="0 0 327 102" fill="none" xmlns="http://www.w3.org/2000/svg">
<path d="M36.188 24.1707L27.8797 39.2114V24.1707L31.7895 14.0081H36.188V24.1707Z" fill="black"/>
<path d="M147.128 74.9837L56.2256 101L52.3158 98.9675L90.4361 83.9268L136.376 74.9837H147.128L160.323 70.7154L173.519 66.4472L178.65 64.0081L173.519 69.2927L160.323 70.7154L147.128 74.9837Z" fill="black"/>
<path d="M1 69.2927L27.8797 39.2114M27.8797 39.2114L36.188 24.1707V14.0081H31.7895L27.8797 24.1707V39.2114ZM24.9474 51.4065L27.8797 69.2927L31.7895 72.5447H36.188L42.5414 66.4472L49.3835 51.4065V37.1789L61.1128 20.9187L56.2256 72.5447L58.6692 77.8293L63.0677 79.0488L67.4662 72.5447L69.9098 64.0081L72.3534 48.1545L76.7519 44.0894L81.6391 51.4065L87.5038 37.1789H92.8797L97.2782 48.1545L104.12 31.8943L116.827 39.2114L119.759 35.1463L122.203 24.1707V44.0894L131.489 39.2114L136.376 31.8943V24.1707L142.241 28.2358V35.1463L144.684 24.1707L149.571 11.9756V1L157.88 31.8943L167.654 18.0732L173.519 14.0081L181.338 20.9187L187.692 26.2033L203.82 8.72358L206.263 11.9756V20.9187L199.91 39.2114L183.782 61.5691L178.65 64.0081M147.128 74.9837L56.2256 101L52.3158 98.9675L90.4361 83.9268L136.376 74.9837H147.128ZM147.128 74.9837L160.323 70.7154M160.323 70.7154L173.519 66.4472L178.65 64.0081M160.323 70.7154L173.519 69.2927L178.65 64.0081M187.692 61.5691L326 18.0732" stroke="black"/>
</svg>
